<?xml version="1.0" encoding="UTF-8"?>
<svg width="250" height="175" viewBox="0 0 250 175" fill="none" xmlns="http://www.w3.org/2000/svg">
  <!-- Stove body -->
  <rect x="75" y="20" width="100" height="140" rx="8" fill="#404040" />
  <rect x="80" y="25" width="90" height="130" rx="6" fill="#303030" />

  <!-- Stove window -->
  <rect x="90" y="35" width="70" height="90" rx="6" fill="#1a1a1a" />
  <rect x="95" y="40" width="60" height="80" rx="4" fill="#111111" />

  <!-- Flames -->
  <path d="M105 100C105 80 125 75 125 65C125 75 145 80 145 100C145 110 135 115 125 115C115 115 105 110 105 100Z" fill="#f8692b" />
  <path d="M110 100C110 85 125 82 125 70C125 82 140 85 140 100C140 108 133 112 125 112C117 112 110 108 110 100Z" fill="#fcae30" />
  <path d="M115 100C115 88 125 86 125 75C125 86 135 88 135 100C135 105 130 108 125 108C120 108 115 105 115 100Z" fill="#ffdb44" />

  <!-- Controls -->
  <circle cx="125" cy="140" r="5" fill="#707070" />
  <circle cx="110" cy="140" r="3" fill="#707070" />
  <circle cx="140" cy="140" r="3" fill="#707070" />
</svg>
