<svg width="1024" height="1024" viewBox="0 0 1024 1024" fill="none" xmlns="http://www.w3.org/2000/svg">
  <defs>
    <radialGradient id="fireGlow" cx="50%" cy="60%" r="60%">
      <stop offset="0%" stop-color="#fffbe6"/>
      <stop offset="60%" stop-color="#ffb347"/>
      <stop offset="100%" stop-color="#e25b00"/>
    </radialGradient>
    <linearGradient id="logWood" x1="0" y1="0" x2="1" y2="1">
      <stop offset="0%" stop-color="#a0522d"/>
      <stop offset="100%" stop-color="#7b3f00"/>
    </linearGradient>
  </defs>
  <!-- Bonfire logs -->
  <ellipse cx="512" cy="900" rx="220" ry="40" fill="url(#logWood)"/>
  <rect x="350" y="860" width="80" height="40" rx="20" transform="rotate(-15 350 860)" fill="#8b5c2d"/>
  <rect x="594" y="860" width="80" height="40" rx="20" transform="rotate(15 594 860)" fill="#8b5c2d"/>
  <!-- Main fire body -->
  <path d="M512 900c-80-120-120-220-80-320 40-100 120-120 120-240 0-60-40-120-40-120s80 40 120 160c40 120-40 180-40 240 0 60 40 80 40 120 0 40-40 80-120 160z" fill="url(#fireGlow)"/>
  <!-- Inner flames -->
  <path d="M512 900c-40-60-60-110-40-160 20-50 60-60 60-120 0-30-20-60-20-60s40 20 60 80c20 60-20 90-20 120 0 30 20 40 20 60 0 20-20 40-60 80z" fill="#fffbe6" fill-opacity="0.7"/>
  <path d="M512 900c-30-40-45-75-30-110 15-35 45-42 45-84 0-21-15-42-15-42s30 14 45 56c15 42-15 63-15 84 0 21 15 28 15 42 0 14-15 28-45 56z" fill="#ffd580" fill-opacity="0.8"/>
  <!-- Outer flames -->
  <path d="M512 900c60-90 90-165 60-240-30-75-90-90-90-180 0-45 30-90 30-90s-60 30-90 120c-30 90 30 135 30 180 0 45-30 60-30 90 0 30 30 60 90 120z" fill="#e25b00" fill-opacity="0.7"/>
  <!-- Sparks -->
  <circle cx="480" cy="700" r="8" fill="#fffbe6" fill-opacity="0.7"/>
  <circle cx="540" cy="650" r="6" fill="#ffd580" fill-opacity="0.7"/>
  <circle cx="500" cy="600" r="5" fill="#ffb347" fill-opacity="0.7"/>
</svg>
